<mxfile host="app.diagrams.net" agent="Mozilla/5.0 (X11; Linux x86_64; rv:127.0) Gecko/20100101 Firefox/127.0" version="24.7.16">
  <diagram name="Page-1" id="s5tJUXTgIwSfe00f4HGY">
    <mxGraphModel dx="1687" dy="915" grid="1" gridSize="10" guides="1" tooltips="1" connect="1" arrows="1" fold="1" page="1" pageScale="1" pageWidth="850" pageHeight="1100" math="0" shadow="0">
      <root>
        <mxCell id="0" />
        <mxCell id="1" parent="0" />
        <mxCell id="KSAM085h_udEm5OOtR-v-1" value="&lt;div align=&quot;center&quot;&gt;Presentation Layer&lt;/div&gt;" style="verticalAlign=top;align=center;overflow=fill;html=1;whiteSpace=wrap;" vertex="1" parent="1">
          <mxGeometry x="170" y="20" width="510" height="290" as="geometry" />
        </mxCell>
        <mxCell id="KSAM085h_udEm5OOtR-v-2" value="&lt;div align=&quot;center&quot;&gt;&lt;br&gt;&lt;/div&gt;&lt;div align=&quot;center&quot;&gt;User Interface&lt;br&gt;&lt;/div&gt;" style="align=left;overflow=fill;html=1;dropTarget=0;whiteSpace=wrap;strokeColor=default;" vertex="1" parent="1">
          <mxGeometry x="250" y="130" width="155" height="70" as="geometry" />
        </mxCell>
        <mxCell id="KSAM085h_udEm5OOtR-v-3" value="" style="shape=component;jettyWidth=8;jettyHeight=4;" vertex="1" parent="KSAM085h_udEm5OOtR-v-2">
          <mxGeometry x="1" width="20" height="20" relative="1" as="geometry">
            <mxPoint x="-24" y="4" as="offset" />
          </mxGeometry>
        </mxCell>
        <mxCell id="KSAM085h_udEm5OOtR-v-4" value="&lt;div&gt;&lt;br&gt;&lt;/div&gt;&lt;div&gt;Admin Interface&lt;br&gt;&lt;/div&gt;" style="align=center;overflow=fill;html=1;dropTarget=0;whiteSpace=wrap;verticalAlign=middle;horizontal=1;" vertex="1" parent="1">
          <mxGeometry x="450" y="130" width="155" height="70" as="geometry" />
        </mxCell>
        <mxCell id="KSAM085h_udEm5OOtR-v-5" value="" style="shape=component;jettyWidth=8;jettyHeight=4;" vertex="1" parent="KSAM085h_udEm5OOtR-v-4">
          <mxGeometry x="1" width="20" height="20" relative="1" as="geometry">
            <mxPoint x="-24" y="4" as="offset" />
          </mxGeometry>
        </mxCell>
        <mxCell id="KSAM085h_udEm5OOtR-v-6" value="&lt;div style=&quot;font-size: 20px;&quot; align=&quot;center&quot;&gt;&lt;font style=&quot;font-size: 20px;&quot;&gt;Business Layer&lt;br&gt;&lt;/font&gt;&lt;/div&gt;" style="verticalAlign=top;align=center;overflow=fill;html=1;whiteSpace=wrap;" vertex="1" parent="1">
          <mxGeometry x="165" y="370" width="520" height="300" as="geometry" />
        </mxCell>
        <mxCell id="KSAM085h_udEm5OOtR-v-7" value="&lt;div align=&quot;center&quot;&gt;&lt;br&gt;&lt;/div&gt;&lt;div align=&quot;center&quot;&gt;Catalog&lt;/div&gt;" style="align=center;overflow=fill;html=1;dropTarget=0;whiteSpace=wrap;strokeColor=default;" vertex="1" parent="1">
          <mxGeometry x="190" y="440" width="120" height="60" as="geometry" />
        </mxCell>
        <mxCell id="KSAM085h_udEm5OOtR-v-8" value="" style="shape=component;jettyWidth=8;jettyHeight=4;" vertex="1" parent="KSAM085h_udEm5OOtR-v-7">
          <mxGeometry x="1" width="20" height="20" relative="1" as="geometry">
            <mxPoint x="-24" y="4" as="offset" />
          </mxGeometry>
        </mxCell>
        <mxCell id="KSAM085h_udEm5OOtR-v-9" value="&lt;div&gt;&lt;font style=&quot;font-size: 10px;&quot;&gt;&lt;br&gt;&lt;/font&gt;&lt;/div&gt;&lt;div&gt;&lt;font style=&quot;font-size: 10px;&quot;&gt;Order&lt;/font&gt;&lt;/div&gt;&lt;div&gt;&lt;font style=&quot;font-size: 10px;&quot;&gt;&amp;nbsp;Management&lt;/font&gt;&lt;/div&gt;" style="align=center;overflow=fill;html=1;dropTarget=0;whiteSpace=wrap;strokeColor=default;" vertex="1" parent="1">
          <mxGeometry x="530" y="560" width="125" height="60" as="geometry" />
        </mxCell>
        <mxCell id="KSAM085h_udEm5OOtR-v-10" value="" style="shape=component;jettyWidth=8;jettyHeight=4;" vertex="1" parent="KSAM085h_udEm5OOtR-v-9">
          <mxGeometry x="1" width="20" height="20" relative="1" as="geometry">
            <mxPoint x="-24" y="4" as="offset" />
          </mxGeometry>
        </mxCell>
        <mxCell id="KSAM085h_udEm5OOtR-v-11" value="&lt;div style=&quot;font-size: 10px;&quot;&gt;&lt;font style=&quot;font-size: 10px;&quot;&gt;&lt;br&gt;&lt;/font&gt;&lt;/div&gt;&lt;div style=&quot;font-size: 10px;&quot;&gt;&lt;font style=&quot;font-size: 10px;&quot;&gt;Listing &lt;br style=&quot;font-size: 10px;&quot;&gt;&lt;/font&gt;&lt;/div&gt;&lt;div style=&quot;font-size: 10px;&quot;&gt;&lt;font style=&quot;font-size: 10px;&quot;&gt;Managemen&lt;/font&gt;t&lt;br style=&quot;font-size: 10px;&quot;&gt;&lt;/div&gt;" style="align=center;overflow=fill;html=1;dropTarget=0;whiteSpace=wrap;strokeColor=default;fontSize=10;" vertex="1" parent="1">
          <mxGeometry x="395" y="560" width="120" height="60" as="geometry" />
        </mxCell>
        <mxCell id="KSAM085h_udEm5OOtR-v-12" value="" style="shape=component;jettyWidth=8;jettyHeight=4;" vertex="1" parent="KSAM085h_udEm5OOtR-v-11">
          <mxGeometry x="1" width="20" height="20" relative="1" as="geometry">
            <mxPoint x="-24" y="4" as="offset" />
          </mxGeometry>
        </mxCell>
        <mxCell id="KSAM085h_udEm5OOtR-v-13" value="&lt;font style=&quot;font-size: 20px;&quot;&gt;Backend&lt;/font&gt;" style="verticalAlign=top;align=center;overflow=fill;html=1;whiteSpace=wrap;" vertex="1" parent="1">
          <mxGeometry x="165" y="750" width="520" height="310" as="geometry" />
        </mxCell>
        <mxCell id="KSAM085h_udEm5OOtR-v-15" value="&lt;div&gt;Users&lt;/div&gt;&lt;div&gt;Database&lt;br&gt;&lt;/div&gt;" style="shape=datastore;whiteSpace=wrap;html=1;" vertex="1" parent="1">
          <mxGeometry x="380" y="857.5" width="90" height="95" as="geometry" />
        </mxCell>
        <mxCell id="KSAM085h_udEm5OOtR-v-16" value="&lt;div&gt;Listings&lt;/div&gt;&lt;div&gt;Database&lt;br&gt;&lt;/div&gt;" style="shape=datastore;whiteSpace=wrap;html=1;" vertex="1" parent="1">
          <mxGeometry x="220" y="857.5" width="90" height="95" as="geometry" />
        </mxCell>
        <mxCell id="KSAM085h_udEm5OOtR-v-17" value="Orders Database" style="shape=datastore;whiteSpace=wrap;html=1;" vertex="1" parent="1">
          <mxGeometry x="540" y="857.5" width="90" height="95" as="geometry" />
        </mxCell>
        <mxCell id="KSAM085h_udEm5OOtR-v-19" value="&lt;div style=&quot;font-size: 10px;&quot;&gt;&lt;font style=&quot;font-size: 10px;&quot;&gt;&lt;br&gt;&lt;/font&gt;&lt;/div&gt;&lt;div style=&quot;font-size: 10px;&quot;&gt;&lt;font style=&quot;font-size: 10px;&quot;&gt;User &lt;br style=&quot;font-size: 10px;&quot;&gt;&lt;/font&gt;&lt;/div&gt;&lt;div style=&quot;font-size: 10px;&quot;&gt;&lt;font style=&quot;font-size: 10px;&quot;&gt;Managemen&lt;/font&gt;t&lt;br style=&quot;font-size: 10px;&quot;&gt;&lt;/div&gt;" style="align=center;overflow=fill;html=1;dropTarget=0;whiteSpace=wrap;strokeColor=default;fontSize=10;verticalAlign=middle;" vertex="1" parent="1">
          <mxGeometry x="260" y="560" width="120" height="60" as="geometry" />
        </mxCell>
        <mxCell id="KSAM085h_udEm5OOtR-v-20" value="" style="shape=component;jettyWidth=8;jettyHeight=4;" vertex="1" parent="KSAM085h_udEm5OOtR-v-19">
          <mxGeometry x="1" width="20" height="20" relative="1" as="geometry">
            <mxPoint x="-24" y="4" as="offset" />
          </mxGeometry>
        </mxCell>
        <mxCell id="KSAM085h_udEm5OOtR-v-21" value="&lt;div&gt;&lt;br&gt;&lt;/div&gt;&lt;div&gt;Admin&lt;/div&gt;&lt;div&gt;Panel&lt;br&gt;&lt;/div&gt;" style="align=center;overflow=fill;html=1;dropTarget=0;whiteSpace=wrap;strokeColor=default;" vertex="1" parent="1">
          <mxGeometry x="510" y="440" width="120" height="60" as="geometry" />
        </mxCell>
        <mxCell id="KSAM085h_udEm5OOtR-v-22" value="" style="shape=component;jettyWidth=8;jettyHeight=4;" vertex="1" parent="KSAM085h_udEm5OOtR-v-21">
          <mxGeometry x="1" width="20" height="20" relative="1" as="geometry">
            <mxPoint x="-24" y="4" as="offset" />
          </mxGeometry>
        </mxCell>
        <mxCell id="KSAM085h_udEm5OOtR-v-24" value="&lt;div&gt;&lt;br&gt;&lt;/div&gt;&lt;div&gt;Account&lt;/div&gt;" style="align=center;overflow=fill;html=1;dropTarget=0;whiteSpace=wrap;strokeColor=default;" vertex="1" parent="1">
          <mxGeometry x="320" y="440" width="120" height="60" as="geometry" />
        </mxCell>
        <mxCell id="KSAM085h_udEm5OOtR-v-25" value="" style="shape=component;jettyWidth=8;jettyHeight=4;" vertex="1" parent="KSAM085h_udEm5OOtR-v-24">
          <mxGeometry x="1" width="20" height="20" relative="1" as="geometry">
            <mxPoint x="-24" y="4" as="offset" />
          </mxGeometry>
        </mxCell>
        <mxCell id="KSAM085h_udEm5OOtR-v-26" value="&lt;font style=&quot;font-size: 14px;&quot;&gt;Uses&lt;/font&gt;" style="html=1;verticalAlign=bottom;endArrow=open;dashed=1;endSize=8;curved=0;rounded=0;exitX=0.5;exitY=1;exitDx=0;exitDy=0;entryX=0.5;entryY=0;entryDx=0;entryDy=0;" edge="1" parent="1" source="KSAM085h_udEm5OOtR-v-2" target="KSAM085h_udEm5OOtR-v-7">
          <mxGeometry x="-0.1783" y="5" relative="1" as="geometry">
            <mxPoint x="490" y="520" as="sourcePoint" />
            <mxPoint x="410" y="520" as="targetPoint" />
            <mxPoint as="offset" />
          </mxGeometry>
        </mxCell>
        <mxCell id="KSAM085h_udEm5OOtR-v-27" value="&lt;font style=&quot;font-size: 14px;&quot;&gt;Uses&lt;/font&gt;" style="html=1;verticalAlign=bottom;endArrow=open;dashed=1;endSize=8;curved=0;rounded=0;exitX=0.5;exitY=1;exitDx=0;exitDy=0;entryX=0.5;entryY=0;entryDx=0;entryDy=0;" edge="1" parent="1" source="KSAM085h_udEm5OOtR-v-4" target="KSAM085h_udEm5OOtR-v-21">
          <mxGeometry x="-0.2692" y="-13" relative="1" as="geometry">
            <mxPoint x="490" y="520" as="sourcePoint" />
            <mxPoint x="410" y="520" as="targetPoint" />
            <mxPoint as="offset" />
          </mxGeometry>
        </mxCell>
        <mxCell id="KSAM085h_udEm5OOtR-v-28" value="&lt;font style=&quot;font-size: 14px;&quot;&gt;Uses&lt;/font&gt;" style="html=1;verticalAlign=bottom;endArrow=open;dashed=1;endSize=8;curved=0;rounded=0;exitX=0.5;exitY=1;exitDx=0;exitDy=0;entryX=0.5;entryY=0;entryDx=0;entryDy=0;" edge="1" parent="1" source="KSAM085h_udEm5OOtR-v-2" target="KSAM085h_udEm5OOtR-v-24">
          <mxGeometry x="-0.1783" y="5" relative="1" as="geometry">
            <mxPoint x="338" y="210" as="sourcePoint" />
            <mxPoint x="260" y="450" as="targetPoint" />
            <mxPoint as="offset" />
          </mxGeometry>
        </mxCell>
        <mxCell id="KSAM085h_udEm5OOtR-v-29" value="&lt;font style=&quot;font-size: 14px;&quot;&gt;Uses&lt;/font&gt;" style="html=1;verticalAlign=bottom;endArrow=open;dashed=1;endSize=8;curved=0;rounded=0;exitX=0.5;exitY=1;exitDx=0;exitDy=0;entryX=0.5;entryY=0;entryDx=0;entryDy=0;" edge="1" parent="1" source="KSAM085h_udEm5OOtR-v-24" target="KSAM085h_udEm5OOtR-v-19">
          <mxGeometry x="-0.1783" y="5" relative="1" as="geometry">
            <mxPoint x="338" y="210" as="sourcePoint" />
            <mxPoint x="390" y="450" as="targetPoint" />
            <mxPoint as="offset" />
          </mxGeometry>
        </mxCell>
        <mxCell id="KSAM085h_udEm5OOtR-v-30" value="&lt;font style=&quot;font-size: 14px;&quot;&gt;Uses&lt;/font&gt;" style="html=1;verticalAlign=bottom;endArrow=open;dashed=1;endSize=8;curved=0;rounded=0;exitX=0.5;exitY=1;exitDx=0;exitDy=0;entryX=0.569;entryY=0.025;entryDx=0;entryDy=0;entryPerimeter=0;" edge="1" parent="1" source="KSAM085h_udEm5OOtR-v-21" target="KSAM085h_udEm5OOtR-v-19">
          <mxGeometry x="-0.1783" y="5" relative="1" as="geometry">
            <mxPoint x="390" y="510" as="sourcePoint" />
            <mxPoint x="330" y="570" as="targetPoint" />
            <mxPoint as="offset" />
          </mxGeometry>
        </mxCell>
        <mxCell id="KSAM085h_udEm5OOtR-v-31" value="&lt;font style=&quot;font-size: 14px;&quot;&gt;Uses&lt;/font&gt;" style="html=1;verticalAlign=bottom;endArrow=open;dashed=1;endSize=8;curved=0;rounded=0;exitX=0.5;exitY=1;exitDx=0;exitDy=0;entryX=0.5;entryY=0;entryDx=0;entryDy=0;" edge="1" parent="1" source="KSAM085h_udEm5OOtR-v-21" target="KSAM085h_udEm5OOtR-v-11">
          <mxGeometry x="-0.1783" y="5" relative="1" as="geometry">
            <mxPoint x="580" y="510" as="sourcePoint" />
            <mxPoint x="338" y="572" as="targetPoint" />
            <mxPoint as="offset" />
          </mxGeometry>
        </mxCell>
        <mxCell id="KSAM085h_udEm5OOtR-v-32" value="&lt;font style=&quot;font-size: 14px;&quot;&gt;Uses&lt;/font&gt;" style="html=1;verticalAlign=bottom;endArrow=open;dashed=1;endSize=8;curved=0;rounded=0;exitX=0.5;exitY=1;exitDx=0;exitDy=0;entryX=0.5;entryY=0;entryDx=0;entryDy=0;" edge="1" parent="1" source="KSAM085h_udEm5OOtR-v-21" target="KSAM085h_udEm5OOtR-v-9">
          <mxGeometry x="-0.1783" y="5" relative="1" as="geometry">
            <mxPoint x="580" y="510" as="sourcePoint" />
            <mxPoint x="465" y="570" as="targetPoint" />
            <mxPoint as="offset" />
          </mxGeometry>
        </mxCell>
        <mxCell id="KSAM085h_udEm5OOtR-v-33" value="&lt;font style=&quot;font-size: 14px;&quot;&gt;Reads&lt;/font&gt;" style="html=1;verticalAlign=bottom;endArrow=open;dashed=1;endSize=8;curved=0;rounded=0;exitX=0.5;exitY=1;exitDx=0;exitDy=0;entryX=0.5;entryY=0;entryDx=0;entryDy=0;" edge="1" parent="1" source="KSAM085h_udEm5OOtR-v-7" target="KSAM085h_udEm5OOtR-v-16">
          <mxGeometry x="-0.1065" y="-7" relative="1" as="geometry">
            <mxPoint x="338" y="210" as="sourcePoint" />
            <mxPoint x="260" y="450" as="targetPoint" />
            <mxPoint as="offset" />
          </mxGeometry>
        </mxCell>
        <mxCell id="KSAM085h_udEm5OOtR-v-34" value="&lt;font style=&quot;font-size: 14px;&quot;&gt;Reads/Writes&lt;/font&gt;" style="html=1;verticalAlign=bottom;endArrow=open;dashed=1;endSize=8;curved=0;rounded=0;exitX=0.5;exitY=1;exitDx=0;exitDy=0;entryX=0.5;entryY=0;entryDx=0;entryDy=0;" edge="1" parent="1" source="KSAM085h_udEm5OOtR-v-19" target="KSAM085h_udEm5OOtR-v-15">
          <mxGeometry x="-0.7575" y="-3" relative="1" as="geometry">
            <mxPoint x="260" y="510" as="sourcePoint" />
            <mxPoint x="275" y="868" as="targetPoint" />
            <mxPoint as="offset" />
          </mxGeometry>
        </mxCell>
        <mxCell id="KSAM085h_udEm5OOtR-v-35" value="&lt;font style=&quot;font-size: 14px;&quot;&gt;Reads/Writes&lt;/font&gt;" style="html=1;verticalAlign=bottom;endArrow=open;dashed=1;endSize=8;curved=0;rounded=0;exitX=0.5;exitY=1;exitDx=0;exitDy=0;entryX=0.5;entryY=0;entryDx=0;entryDy=0;" edge="1" parent="1" source="KSAM085h_udEm5OOtR-v-11" target="KSAM085h_udEm5OOtR-v-16">
          <mxGeometry x="-0.3633" y="7" relative="1" as="geometry">
            <mxPoint x="330" y="630" as="sourcePoint" />
            <mxPoint x="435" y="868" as="targetPoint" />
            <mxPoint as="offset" />
          </mxGeometry>
        </mxCell>
        <mxCell id="KSAM085h_udEm5OOtR-v-36" value="&lt;font style=&quot;font-size: 14px;&quot;&gt;Reads/Writes&lt;/font&gt;" style="html=1;verticalAlign=bottom;endArrow=open;dashed=1;endSize=8;curved=0;rounded=0;exitX=0.5;exitY=1;exitDx=0;exitDy=0;entryX=0.5;entryY=0;entryDx=0;entryDy=0;" edge="1" parent="1" source="KSAM085h_udEm5OOtR-v-9" target="KSAM085h_udEm5OOtR-v-17">
          <mxGeometry x="-0.2409" y="-5" relative="1" as="geometry">
            <mxPoint x="517.5" y="619.5" as="sourcePoint" />
            <mxPoint x="622.5" y="857.5" as="targetPoint" />
            <mxPoint as="offset" />
          </mxGeometry>
        </mxCell>
      </root>
    </mxGraphModel>
  </diagram>
</mxfile>
